<svg width="18" height="12" viewBox="0 0 18 12" fill="none" xmlns="http://www.w3.org/2000/svg">
<path fill-rule="evenodd" clip-rule="evenodd" d="M15.5529 3.01912L9.23716 8.08059C9.12158 8.1728 8.982 8.21891 8.84242 8.21891C8.70221 8.21891 8.56263 8.1728 8.44705 8.08059L2.13126 3.01912C1.85905 2.80122 1.81547 2.40333 2.03337 2.13112C2.25189 1.85954 2.64979 1.81596 2.92137 2.03322L8.84242 6.77827L14.7628 2.03322C15.0351 1.81533 15.4323 1.85891 15.6508 2.13112C15.8687 2.40333 15.8252 2.80122 15.5529 3.01912M16.4213 0.00012207H1.2634C0.565507 0.00012207 0.000244141 0.565385 0.000244141 1.26328V10.737C0.000244141 11.4342 0.565507 12.0001 1.2634 12.0001H16.4213C17.1186 12.0001 17.6845 11.4342 17.6845 10.737V1.26328C17.6845 0.565385 17.1186 0.00012207 16.4213 0.00012207" fill="#DBDBDB"/>
<mask id="mask0_1642_94" style="mask-type:alpha" maskUnits="userSpaceOnUse" x="0" y="0" width="18" height="13">
<path fill-rule="evenodd" clip-rule="evenodd" d="M15.5529 3.01912L9.23716 8.08059C9.12158 8.1728 8.982 8.21891 8.84242 8.21891C8.70221 8.21891 8.56263 8.1728 8.44705 8.08059L2.13126 3.01912C1.85905 2.80122 1.81547 2.40333 2.03337 2.13112C2.25189 1.85954 2.64979 1.81596 2.92137 2.03322L8.84242 6.77827L14.7628 2.03322C15.0351 1.81533 15.4323 1.85891 15.6508 2.13112C15.8687 2.40333 15.8252 2.80122 15.5529 3.01912M16.4213 0.00012207H1.2634C0.565507 0.00012207 0.000244141 0.565385 0.000244141 1.26328V10.737C0.000244141 11.4342 0.565507 12.0001 1.2634 12.0001H16.4213C17.1186 12.0001 17.6845 11.4342 17.6845 10.737V1.26328C17.6845 0.565385 17.1186 0.00012207 16.4213 0.00012207" fill="white"/>
</mask>
<g mask="url(#mask0_1642_94)">
<rect width="18" height="12" fill="#39393B"/>
</g>
</svg>
